{
    "asset" : {
        "generator" : "Khronos glTF Blender I/O v1.7.33",
        "version" : "2.0"
    },
    "scene" : 0,
    "scenes" : [
        {
            "name" : "Scene",
            "nodes" : [
                0,
                1,
                2,
                3,
                4
            ]
        }
    ],
    "nodes" : [
        {
            "mesh" : 0,
            "name" : "Mirror1",
            "translation" : [
                -0.8923386931419373,
                0.6698482632637024,
                0.8036782145500183
            ]
        },
        {
            "mesh" : 1,
            "name" : "Schirm",
            "translation" : [
                -0.887507438659668,
                0.8576302528381348,
                -1.1154781579971313
            ]
        },
        {
            "mesh" : 2,
            "name" : "Base"
        },
        {
            "mesh" : 3,
            "name" : "Laser",
            "translation" : [
                1.2515264749526978,
                0.6741870641708374,
                0.8802084922790527
            ]
        },
        {
            "mesh" : 4,
            "name" : "ID15",
            "translation" : [
                -0.916667103767395,
                0.4874010682106018,
                -0.13585978746414185
            ]
        }
    ],
    "materials" : [
        {
            "doubleSided" : true,
            "name" : "BlackParts",
            "pbrMetallicRoughness" : {
                "baseColorFactor" : [
                    0.01466942299157381,
                    0.01466942299157381,
                    0.01466942299157381,
                    1
                ],
                "metallicFactor" : 0
            }
        },
        {
            "doubleSided" : true,
            "name" : "ShinyParts",
            "pbrMetallicRoughness" : {
                "baseColorFactor" : [
                    0.4797684848308563,
                    0.6194688677787781,
                    0.8000000715255737,
                    1
                ],
                "roughnessFactor" : 0.30000001192092896
            }
        },
        {
            "doubleSided" : true,
            "name" : "Mirror",
            "pbrMetallicRoughness" : {
                "baseColorFactor" : [
                    0.4797684848308563,
                    0.6194688677787781,
                    0.8000000715255737,
                    1
                ],
                "roughnessFactor" : 0
            }
        },
        {
            "doubleSided" : true,
            "name" : "WhiteParts",
            "pbrMetallicRoughness" : {
                "baseColorFactor" : [
                    0.800000011920929,
                    0.800000011920929,
                    0.800000011920929,
                    1
                ],
                "metallicFactor" : 0,
                "roughnessFactor" : 0.5
            }
        }
    ],
    "meshes" : [
        {
            "name" : "SideMirrorMesh",
            "primitives" : [
                {
                    "attributes" : {
                        "POSITION" : 0,
                        "NORMAL" : 1,
                        "TEXCOORD_0" : 2
                    },
                    "indices" : 3,
                    "material" : 0
                },
                {
                    "attributes" : {
                        "POSITION" : 4,
                        "NORMAL" : 5,
                        "TEXCOORD_0" : 6
                    },
                    "indices" : 7,
                    "material" : 1
                },
                {
                    "attributes" : {
                        "POSITION" : 8,
                        "NORMAL" : 9,
                        "TEXCOORD_0" : 10
                    },
                    "indices" : 11,
                    "material" : 2
                }
            ]
        },
        {
            "name" : "PlaneMesh",
            "primitives" : [
                {
                    "attributes" : {
                        "POSITION" : 12,
                        "NORMAL" : 13,
                        "TEXCOORD_0" : 14
                    },
                    "indices" : 15,
                    "material" : 3
                },
                {
                    "attributes" : {
                        "POSITION" : 16,
                        "NORMAL" : 17,
                        "TEXCOORD_0" : 18
                    },
                    "indices" : 19,
                    "material" : 0
                }
            ]
        },
        {
            "name" : "BaseMesh",
            "primitives" : [
                {
                    "attributes" : {
                        "POSITION" : 20,
                        "NORMAL" : 21,
                        "TEXCOORD_0" : 22
                    },
                    "indices" : 23,
                    "material" : 1
                }
            ]
        },
        {
            "name" : "LaserMesh",
            "primitives" : [
                {
                    "attributes" : {
                        "POSITION" : 24,
                        "NORMAL" : 25,
                        "TEXCOORD_0" : 26
                    },
                    "indices" : 27,
                    "material" : 0
                },
                {
                    "attributes" : {
                        "POSITION" : 28,
                        "NORMAL" : 29,
                        "TEXCOORD_0" : 30
                    },
                    "indices" : 31,
                    "material" : 1
                }
            ]
        },
        {
            "name" : "ID15Mesh",
            "primitives" : [
                {
                    "attributes" : {
                        "POSITION" : 32,
                        "NORMAL" : 33,
                        "TEXCOORD_0" : 34
                    },
                    "indices" : 35,
                    "material" : 0
                },
                {
                    "attributes" : {
                        "POSITION" : 36,
                        "NORMAL" : 37,
                        "TEXCOORD_0" : 38
                    },
                    "indices" : 39,
                    "material" : 1
                }
            ]
        }
    ],
    "accessors" : [
        {
            "bufferView" : 0,
            "componentType" : 5126,
            "count" : 5330,
            "max" : [
                0.4185512065887451,
                0.23918938636779785,
                0.37709516286849976
            ],
            "min" : [
                -0.38125258684158325,
                -0.6711581349372864,
                -0.1849634051322937
            ],
            "type" : "VEC3"
        },
        {
            "bufferView" : 1,
            "componentType" : 5126,
            "count" : 5330,
            "type" : "VEC3"
        },
        {
            "bufferView" : 2,
            "componentType" : 5126,
            "count" : 5330,
            "type" : "VEC2"
        },
        {
            "bufferView" : 3,
            "componentType" : 5123,
            "count" : 7362,
            "type" : "SCALAR"
        },
        {
            "bufferView" : 4,
            "componentType" : 5126,
            "count" : 1266,
            "max" : [
                0.12001341581344604,
                0.20018380880355835,
                0.29572635889053345
            ],
            "min" : [
                -0.293732225894928,
                -0.5427337884902954,
                -0.13980281352996826
            ],
            "type" : "VEC3"
        },
        {
            "bufferView" : 5,
            "componentType" : 5126,
            "count" : 1266,
            "type" : "VEC3"
        },
        {
            "bufferView" : 6,
            "componentType" : 5126,
            "count" : 1266,
            "type" : "VEC2"
        },
        {
            "bufferView" : 7,
            "componentType" : 5123,
            "count" : 2130,
            "type" : "SCALAR"
        },
        {
            "bufferView" : 8,
            "componentType" : 5126,
            "count" : 32,
            "max" : [
                0.0895351767539978,
                0.1115826964378357,
                0.07034242153167725
            ],
            "min" : [
                -0.0549885630607605,
                -0.11158281564712524,
                -0.099703848361969
            ],
            "type" : "VEC3"
        },
        {
            "bufferView" : 9,
            "componentType" : 5126,
            "count" : 32,
            "type" : "VEC3"
        },
        {
            "bufferView" : 10,
            "componentType" : 5126,
            "count" : 32,
            "type" : "VEC2"
        },
        {
            "bufferView" : 11,
            "componentType" : 5123,
            "count" : 90,
            "type" : "SCALAR"
        },
        {
            "bufferView" : 12,
            "componentType" : 5126,
            "count" : 367,
            "max" : [
                0.75,
                0.75,
                0.08845672011375427
            ],
            "min" : [
                -0.75,
                -0.75,
                -0.08845672011375427
            ],
            "type" : "VEC3"
        },
        {
            "bufferView" : 13,
            "componentType" : 5126,
            "count" : 367,
            "type" : "VEC3"
        },
        {
            "bufferView" : 14,
            "componentType" : 5126,
            "count" : 367,
            "type" : "VEC2"
        },
        {
            "bufferView" : 15,
            "componentType" : 5123,
            "count" : 660,
            "type" : "SCALAR"
        },
        {
            "bufferView" : 16,
            "componentType" : 5126,
            "count" : 837,
            "max" : [
                0.37635162472724915,
                -0.7549918293952942,
                0.2374650239944458
            ],
            "min" : [
                -0.3736485540866852,
                -0.8549918532371521,
                -0.2625352144241333
            ],
            "type" : "VEC3"
        },
        {
            "bufferView" : 17,
            "componentType" : 5126,
            "count" : 837,
            "type" : "VEC3"
        },
        {
            "bufferView" : 18,
            "componentType" : 5126,
            "count" : 837,
            "type" : "VEC2"
        },
        {
            "bufferView" : 19,
            "componentType" : 5123,
            "count" : 1368,
            "type" : "SCALAR"
        },
        {
            "bufferView" : 20,
            "componentType" : 5126,
            "count" : 21522,
            "max" : [
                2.250000476837158,
                0,
                1.5000003576278687
            ],
            "min" : [
                -2.250000476837158,
                -0.050000011920928955,
                -1.5000003576278687
            ],
            "type" : "VEC3"
        },
        {
            "bufferView" : 21,
            "componentType" : 5126,
            "count" : 21522,
            "type" : "VEC3"
        },
        {
            "bufferView" : 22,
            "componentType" : 5126,
            "count" : 21522,
            "type" : "VEC2"
        },
        {
            "bufferView" : 23,
            "componentType" : 5123,
            "count" : 43104,
            "type" : "SCALAR"
        },
        {
            "bufferView" : 24,
            "componentType" : 5126,
            "count" : 5901,
            "max" : [
                0.6112222671508789,
                0.23485051095485687,
                0.2518211901187897
            ],
            "min" : [
                -0.052923157811164856,
                -0.6754968762397766,
                -0.2435302883386612
            ],
            "type" : "VEC3"
        },
        {
            "bufferView" : 25,
            "componentType" : 5126,
            "count" : 5901,
            "type" : "VEC3"
        },
        {
            "bufferView" : 26,
            "componentType" : 5126,
            "count" : 5901,
            "type" : "VEC2"
        },
        {
            "bufferView" : 27,
            "componentType" : 5123,
            "count" : 8130,
            "type" : "SCALAR"
        },
        {
            "bufferView" : 28,
            "componentType" : 5126,
            "count" : 2292,
            "max" : [
                0.5499348640441895,
                0.19584494829177856,
                0.1928660124540329
            ],
            "min" : [
                -0.25002241134643555,
                -0.5470726490020752,
                -0.20576436817646027
            ],
            "type" : "VEC3"
        },
        {
            "bufferView" : 29,
            "componentType" : 5126,
            "count" : 2292,
            "type" : "VEC3"
        },
        {
            "bufferView" : 30,
            "componentType" : 5126,
            "count" : 2292,
            "type" : "VEC2"
        },
        {
            "bufferView" : 31,
            "componentType" : 5123,
            "count" : 3756,
            "type" : "SCALAR"
        },
        {
            "bufferView" : 32,
            "componentType" : 5126,
            "count" : 3108,
            "max" : [
                0.47104746103286743,
                0.32558879256248474,
                0.20358441770076752
            ],
            "min" : [
                -0.1490841507911682,
                -0.4887109398841858,
                -0.40302884578704834
            ],
            "type" : "VEC3"
        },
        {
            "bufferView" : 33,
            "componentType" : 5126,
            "count" : 3108,
            "type" : "VEC3"
        },
        {
            "bufferView" : 34,
            "componentType" : 5126,
            "count" : 3108,
            "type" : "VEC2"
        },
        {
            "bufferView" : 35,
            "componentType" : 5123,
            "count" : 4884,
            "type" : "SCALAR"
        },
        {
            "bufferView" : 36,
            "componentType" : 5126,
            "count" : 1080,
            "max" : [
                0.06486538797616959,
                0.40413403511047363,
                0.06486547738313675
            ],
            "min" : [
                -0.06486575305461884,
                -0.3602865934371948,
                -0.06486546993255615
            ],
            "type" : "VEC3"
        },
        {
            "bufferView" : 37,
            "componentType" : 5126,
            "count" : 1080,
            "type" : "VEC3"
        },
        {
            "bufferView" : 38,
            "componentType" : 5126,
            "count" : 1080,
            "type" : "VEC2"
        },
        {
            "bufferView" : 39,
            "componentType" : 5123,
            "count" : 1836,
            "type" : "SCALAR"
        }
    ],
    "bufferViews" : [
        {
            "buffer" : 0,
            "byteLength" : 63960,
            "byteOffset" : 0
        },
        {
            "buffer" : 0,
            "byteLength" : 63960,
            "byteOffset" : 63960
        },
        {
            "buffer" : 0,
            "byteLength" : 42640,
            "byteOffset" : 127920
        },
        {
            "buffer" : 0,
            "byteLength" : 14724,
            "byteOffset" : 170560
        },
        {
            "buffer" : 0,
            "byteLength" : 15192,
            "byteOffset" : 185284
        },
        {
            "buffer" : 0,
            "byteLength" : 15192,
            "byteOffset" : 200476
        },
        {
            "buffer" : 0,
            "byteLength" : 10128,
            "byteOffset" : 215668
        },
        {
            "buffer" : 0,
            "byteLength" : 4260,
            "byteOffset" : 225796
        },
        {
            "buffer" : 0,
            "byteLength" : 384,
            "byteOffset" : 230056
        },
        {
            "buffer" : 0,
            "byteLength" : 384,
            "byteOffset" : 230440
        },
        {
            "buffer" : 0,
            "byteLength" : 256,
            "byteOffset" : 230824
        },
        {
            "buffer" : 0,
            "byteLength" : 180,
            "byteOffset" : 231080
        },
        {
            "buffer" : 0,
            "byteLength" : 4404,
            "byteOffset" : 231260
        },
        {
            "buffer" : 0,
            "byteLength" : 4404,
            "byteOffset" : 235664
        },
        {
            "buffer" : 0,
            "byteLength" : 2936,
            "byteOffset" : 240068
        },
        {
            "buffer" : 0,
            "byteLength" : 1320,
            "byteOffset" : 243004
        },
        {
            "buffer" : 0,
            "byteLength" : 10044,
            "byteOffset" : 244324
        },
        {
            "buffer" : 0,
            "byteLength" : 10044,
            "byteOffset" : 254368
        },
        {
            "buffer" : 0,
            "byteLength" : 6696,
            "byteOffset" : 264412
        },
        {
            "buffer" : 0,
            "byteLength" : 2736,
            "byteOffset" : 271108
        },
        {
            "buffer" : 0,
            "byteLength" : 258264,
            "byteOffset" : 273844
        },
        {
            "buffer" : 0,
            "byteLength" : 258264,
            "byteOffset" : 532108
        },
        {
            "buffer" : 0,
            "byteLength" : 172176,
            "byteOffset" : 790372
        },
        {
            "buffer" : 0,
            "byteLength" : 86208,
            "byteOffset" : 962548
        },
        {
            "buffer" : 0,
            "byteLength" : 70812,
            "byteOffset" : 1048756
        },
        {
            "buffer" : 0,
            "byteLength" : 70812,
            "byteOffset" : 1119568
        },
        {
            "buffer" : 0,
            "byteLength" : 47208,
            "byteOffset" : 1190380
        },
        {
            "buffer" : 0,
            "byteLength" : 16260,
            "byteOffset" : 1237588
        },
        {
            "buffer" : 0,
            "byteLength" : 27504,
            "byteOffset" : 1253848
        },
        {
            "buffer" : 0,
            "byteLength" : 27504,
            "byteOffset" : 1281352
        },
        {
            "buffer" : 0,
            "byteLength" : 18336,
            "byteOffset" : 1308856
        },
        {
            "buffer" : 0,
            "byteLength" : 7512,
            "byteOffset" : 1327192
        },
        {
            "buffer" : 0,
            "byteLength" : 37296,
            "byteOffset" : 1334704
        },
        {
            "buffer" : 0,
            "byteLength" : 37296,
            "byteOffset" : 1372000
        },
        {
            "buffer" : 0,
            "byteLength" : 24864,
            "byteOffset" : 1409296
        },
        {
            "buffer" : 0,
            "byteLength" : 9768,
            "byteOffset" : 1434160
        },
        {
            "buffer" : 0,
            "byteLength" : 12960,
            "byteOffset" : 1443928
        },
        {
            "buffer" : 0,
            "byteLength" : 12960,
            "byteOffset" : 1456888
        },
        {
            "buffer" : 0,
            "byteLength" : 8640,
            "byteOffset" : 1469848
        },
        {
            "buffer" : 0,
            "byteLength" : 3672,
            "byteOffset" : 1478488
        }
    ],
    "buffers" : [
        {
            "byteLength" : 1482160,
            "uri" : "data:application/octet-stream;base64,"
        }
    ]
}
